<svg width="9" height="11" viewBox="0 0 9 11" fill="none" xmlns="http://www.w3.org/2000/svg">
<path d="M2.24848 5.47293C1.10825 4.20025 1.37315 2.5187 2.38669 1.60306C3.41174 0.675901 5.00691 0.687419 6.02045 1.63185C6.99943 2.54173 7.25858 4.20601 6.12411 5.46717C6.19321 5.51324 6.26232 5.55931 6.33142 5.60538C7.25282 6.19277 7.84597 7.01627 8.11663 8.07588C8.22029 8.49051 8.03601 8.84179 7.67897 8.93393C7.29313 9.03183 6.97064 8.81876 6.85547 8.37534C6.66543 7.66125 6.27959 7.09114 5.64613 6.7053C4.73049 6.15246 3.77454 6.11791 2.83587 6.64195C1.89719 7.166 1.45377 8.00678 1.43073 9.0779C1.43073 9.1067 1.44225 9.13549 1.44801 9.18732C1.53439 9.18732 1.61502 9.18732 1.7014 9.18732C3.13532 9.18732 4.56349 9.18732 5.99741 9.18732C6.50418 9.18732 6.82091 9.64802 6.63088 10.0857C6.52146 10.3391 6.30839 10.4773 6.03772 10.4773C4.47711 10.483 2.91649 10.4888 1.35587 10.4715C0.659065 10.4658 0.146537 9.90716 0.140778 9.18156C0.12926 7.6267 0.768481 6.42312 2.07571 5.57083C2.12754 5.54779 2.18513 5.51324 2.24848 5.47293ZM4.18341 4.97192C4.96084 4.97192 5.57127 4.37301 5.57127 3.6071C5.57703 2.82967 4.96084 2.20197 4.18341 2.20197C3.41174 2.20197 2.7898 2.82391 2.79556 3.60134C2.80132 4.37301 3.40598 4.97192 4.18341 4.97192Z" fill="black"/>
</svg>
